<svg width="24" height="25" viewBox="0 0 24 25" fill="none" xmlns="http://www.w3.org/2000/svg">
<g clip-path="url(#clip0_2347_2678)">
<path d="M12.5 3.52297C10.8333 3.37405 7 3.88038 5 7.09707C2.5 11.1179 5 19.6065 1.5 20.5H12.5" stroke="black" stroke-width="1.8" stroke-linejoin="round"/>
<path d="M11.5 3.52297C13.1667 3.37405 17 3.88038 19 7.09707C21.5 11.1179 19 19.6065 22.5 20.5H11.5" stroke="black" stroke-width="1.8" stroke-linejoin="round"/>
<path d="M9 22.5C9.50495 23.6773 10.6582 24.5 12 24.5C13.3418 24.5 14.495 23.6773 15 22.5H9Z" fill="black"/>
<path fill-rule="evenodd" clip-rule="evenodd" d="M13.7324 3.5C13.9026 3.20583 14 2.86429 14 2.5C14 1.39543 13.1046 0.5 12 0.5C10.8954 0.5 10 1.39543 10 2.5C10 2.86429 10.0974 3.20583 10.2676 3.5H13.7324Z" fill="black"/>
</g>
<defs>
<clipPath id="clip0_2347_2678">
<rect width="24" height="24" fill="white" transform="translate(0 0.5)"/>
</clipPath>
</defs>
</svg>