<svg width="84" height="16" viewBox="0 0 84 16" fill="none" xmlns="http://www.w3.org/2000/svg">
<path d="M14.1953 15H11.4023V5C11.4023 4.80469 11.3633 4.6224 11.2852 4.45312C11.2135 4.28385 11.1126 4.13737 10.9824 4.01367C10.8587 3.88346 10.7122 3.78255 10.543 3.71094C10.3737 3.63932 10.1914 3.60352 9.99609 3.60352C9.80078 3.60352 9.61849 3.63932 9.44922 3.71094C9.27995 3.78255 9.13021 3.88346 9 4.01367C8.8763 4.13737 8.77865 4.28385 8.70703 4.45312C8.63542 4.6224 8.59961 4.80469 8.59961 5V15H5.79688V5C5.79688 4.80469 5.76107 4.6224 5.68945 4.45312C5.61784 4.28385 5.51693 4.13737 5.38672 4.01367C5.26302 3.88346 5.11654 3.78255 4.94727 3.71094C4.77799 3.63932 4.5957 3.60352 4.40039 3.60352C4.20508 3.60352 4.02279 3.63932 3.85352 3.71094C3.68424 3.78255 3.53451 3.88346 3.4043 4.01367C3.2806 4.13737 3.18294 4.28385 3.11133 4.45312C3.03971 4.6224 3.00391 4.80469 3.00391 5V15H0.201172V5C0.201172 4.42057 0.308594 3.87695 0.523438 3.36914C0.744792 2.85482 1.04427 2.40885 1.42188 2.03125C1.80599 1.64714 2.25195 1.34766 2.75977 1.13281C3.27409 0.911458 3.82096 0.800781 4.40039 0.800781C4.92122 0.800781 5.42253 0.895182 5.9043 1.08398C6.38607 1.26628 6.81901 1.5332 7.20312 1.88477C7.58724 1.5332 8.01693 1.26628 8.49219 1.08398C8.97396 0.895182 9.47526 0.800781 9.99609 0.800781C10.5755 0.800781 11.1191 0.911458 11.627 1.13281C12.1413 1.34766 12.5872 1.64714 12.9648 2.03125C13.349 2.40885 13.6484 2.85482 13.8633 3.36914C14.0846 3.87695 14.1953 4.42057 14.1953 5V15ZM26.4121 9.67773C26.4121 10.459 26.2721 11.1882 25.9922 11.8652C25.7122 12.5358 25.3314 13.1185 24.8496 13.6133C24.3678 14.1016 23.8014 14.4889 23.1504 14.7754C22.5059 15.0553 21.8125 15.1953 21.0703 15.1953C20.3346 15.1953 19.6413 15.0553 18.9902 14.7754C18.3457 14.4889 17.7793 14.1016 17.291 13.6133C16.8092 13.1185 16.4284 12.5358 16.1484 11.8652C15.8685 11.1882 15.7285 10.459 15.7285 9.67773C15.7285 8.88346 15.8685 8.14779 16.1484 7.4707C16.4284 6.79362 16.8092 6.21094 17.291 5.72266C17.7793 5.22786 18.3457 4.84049 18.9902 4.56055C19.6413 4.2806 20.3346 4.14062 21.0703 4.14062C21.8125 4.14062 22.5059 4.27409 23.1504 4.54102C23.8014 4.80143 24.3678 5.17578 24.8496 5.66406C25.3314 6.14583 25.7122 6.72852 25.9922 7.41211C26.2721 8.08919 26.4121 8.8444 26.4121 9.67773ZM23.7266 9.67773C23.7266 9.24805 23.6549 8.86068 23.5117 8.51562C23.375 8.16406 23.1862 7.86458 22.9453 7.61719C22.7044 7.36328 22.4212 7.17122 22.0957 7.04102C21.7767 6.9043 21.4349 6.83594 21.0703 6.83594C20.7057 6.83594 20.3607 6.9043 20.0352 7.04102C19.7161 7.17122 19.4362 7.36328 19.1953 7.61719C18.9609 7.86458 18.7754 8.16406 18.6387 8.51562C18.502 8.86068 18.4336 9.24805 18.4336 9.67773C18.4336 10.0814 18.502 10.4557 18.6387 10.8008C18.7754 11.1458 18.9609 11.4453 19.1953 11.6992C19.4362 11.9531 19.7161 12.1549 20.0352 12.3047C20.3607 12.4479 20.7057 12.5195 21.0703 12.5195C21.4349 12.5195 21.7767 12.4512 22.0957 12.3145C22.4212 12.1777 22.7044 11.9857 22.9453 11.7383C23.1862 11.4909 23.375 11.1914 23.5117 10.8398C23.6549 10.4883 23.7266 10.1009 23.7266 9.67773ZM37.9941 9.67773C37.9941 10.459 37.8542 11.1882 37.5742 11.8652C37.2943 12.5358 36.9134 13.1185 36.4316 13.6133C35.9499 14.1016 35.3835 14.4889 34.7324 14.7754C34.0879 15.0553 33.3945 15.1953 32.6523 15.1953C31.9167 15.1953 31.2233 15.0553 30.5723 14.7754C29.9277 14.4889 29.3613 14.1016 28.873 13.6133C28.3913 13.1185 28.0104 12.5358 27.7305 11.8652C27.4505 11.1882 27.3105 10.459 27.3105 9.67773C27.3105 8.88346 27.4505 8.14779 27.7305 7.4707C28.0104 6.79362 28.3913 6.21094 28.873 5.72266C29.3613 5.22786 29.9277 4.84049 30.5723 4.56055C31.2233 4.2806 31.9167 4.14062 32.6523 4.14062C33.3945 4.14062 34.0879 4.27409 34.7324 4.54102C35.3835 4.80143 35.9499 5.17578 36.4316 5.66406C36.9134 6.14583 37.2943 6.72852 37.5742 7.41211C37.8542 8.08919 37.9941 8.8444 37.9941 9.67773ZM35.3086 9.67773C35.3086 9.24805 35.237 8.86068 35.0938 8.51562C34.957 8.16406 34.7682 7.86458 34.5273 7.61719C34.2865 7.36328 34.0033 7.17122 33.6777 7.04102C33.3587 6.9043 33.0169 6.83594 32.6523 6.83594C32.2878 6.83594 31.9427 6.9043 31.6172 7.04102C31.2982 7.17122 31.0182 7.36328 30.7773 7.61719C30.543 7.86458 30.3574 8.16406 30.2207 8.51562C30.084 8.86068 30.0156 9.24805 30.0156 9.67773C30.0156 10.0814 30.084 10.4557 30.2207 10.8008C30.3574 11.1458 30.543 11.4453 30.7773 11.6992C31.0182 11.9531 31.2982 12.1549 31.6172 12.3047C31.9427 12.4479 32.2878 12.5195 32.6523 12.5195C33.0169 12.5195 33.3587 12.4512 33.6777 12.3145C34.0033 12.1777 34.2865 11.9857 34.5273 11.7383C34.7682 11.4909 34.957 11.1914 35.0938 10.8398C35.237 10.4883 35.3086 10.1009 35.3086 9.67773ZM49.5762 15H48.9316L47.8965 13.5645C47.6426 13.7923 47.3724 14.0072 47.0859 14.209C46.806 14.4043 46.5098 14.5768 46.1973 14.7266C45.8848 14.8698 45.5625 14.9837 45.2305 15.0684C44.9049 15.153 44.5729 15.1953 44.2344 15.1953C43.4987 15.1953 42.8053 15.0586 42.1543 14.7852C41.5098 14.5052 40.9434 14.1211 40.4551 13.6328C39.9733 13.138 39.5924 12.5553 39.3125 11.8848C39.0326 11.2077 38.8926 10.472 38.8926 9.67773C38.8926 8.88997 39.0326 8.15755 39.3125 7.48047C39.5924 6.80339 39.9733 6.21745 40.4551 5.72266C40.9434 5.22786 41.5098 4.84049 42.1543 4.56055C42.8053 4.2806 43.4987 4.14062 44.2344 4.14062C44.4688 4.14062 44.7096 4.16016 44.957 4.19922C45.2109 4.23828 45.4551 4.30339 45.6895 4.39453C45.9303 4.47917 46.1549 4.5931 46.3633 4.73633C46.5716 4.87956 46.7474 5.05534 46.8906 5.26367V0.380859H49.5762V15ZM46.8906 9.67773C46.8906 9.31315 46.819 8.96159 46.6758 8.62305C46.5391 8.27799 46.3503 7.97526 46.1094 7.71484C45.8685 7.44792 45.5853 7.23633 45.2598 7.08008C44.9408 6.91732 44.599 6.83594 44.2344 6.83594C43.8698 6.83594 43.5247 6.90104 43.1992 7.03125C42.8802 7.16146 42.6003 7.35026 42.3594 7.59766C42.125 7.83854 41.9395 8.13477 41.8027 8.48633C41.666 8.83789 41.5977 9.23503 41.5977 9.67773C41.5977 10.0618 41.666 10.4264 41.8027 10.7715C41.9395 11.1165 42.125 11.4193 42.3594 11.6797C42.6003 11.9401 42.8802 12.1452 43.1992 12.2949C43.5247 12.4447 43.8698 12.5195 44.2344 12.5195C44.599 12.5195 44.9408 12.4414 45.2598 12.2852C45.5853 12.1224 45.8685 11.9108 46.1094 11.6504C46.3503 11.3835 46.5391 11.0807 46.6758 10.7422C46.819 10.3971 46.8906 10.0423 46.8906 9.67773ZM59.9863 6.60156V9.25781H51.7832V6.60156H59.9863ZM72.3105 9.67773C72.3105 10.459 72.1706 11.1882 71.8906 11.8652C71.6107 12.5358 71.2298 13.1185 70.748 13.6133C70.2663 14.1016 69.6999 14.4889 69.0488 14.7754C68.4043 15.0553 67.7109 15.1953 66.9688 15.1953C66.2331 15.1953 65.5397 15.0553 64.8887 14.7754C64.2441 14.4889 63.6777 14.1016 63.1895 13.6133C62.7077 13.1185 62.3268 12.5358 62.0469 11.8652C61.7669 11.1882 61.627 10.459 61.627 9.67773C61.627 8.88346 61.7669 8.14779 62.0469 7.4707C62.3268 6.79362 62.7077 6.21094 63.1895 5.72266C63.6777 5.22786 64.2441 4.84049 64.8887 4.56055C65.5397 4.2806 66.2331 4.14062 66.9688 4.14062C67.7109 4.14062 68.4043 4.27409 69.0488 4.54102C69.6999 4.80143 70.2663 5.17578 70.748 5.66406C71.2298 6.14583 71.6107 6.72852 71.8906 7.41211C72.1706 8.08919 72.3105 8.8444 72.3105 9.67773ZM69.625 9.67773C69.625 9.24805 69.5534 8.86068 69.4102 8.51562C69.2734 8.16406 69.0846 7.86458 68.8438 7.61719C68.6029 7.36328 68.3197 7.17122 67.9941 7.04102C67.6751 6.9043 67.3333 6.83594 66.9688 6.83594C66.6042 6.83594 66.2591 6.9043 65.9336 7.04102C65.6146 7.17122 65.3346 7.36328 65.0938 7.61719C64.8594 7.86458 64.6738 8.16406 64.5371 8.51562C64.4004 8.86068 64.332 9.24805 64.332 9.67773C64.332 10.0814 64.4004 10.4557 64.5371 10.8008C64.6738 11.1458 64.8594 11.4453 65.0938 11.6992C65.3346 11.9531 65.6146 12.1549 65.9336 12.3047C66.2591 12.4479 66.6042 12.5195 66.9688 12.5195C67.3333 12.5195 67.6751 12.4512 67.9941 12.3145C68.3197 12.1777 68.6029 11.9857 68.8438 11.7383C69.0846 11.4909 69.2734 11.1914 69.4102 10.8398C69.5534 10.4883 69.625 10.1009 69.625 9.67773ZM76.4512 15H73.7852V4.54102H74.4297L75.3086 5.55664C75.7383 5.16602 76.2233 4.86654 76.7637 4.6582C77.3105 4.44336 77.8802 4.33594 78.4727 4.33594C79.1107 4.33594 79.7129 4.45964 80.2793 4.70703C80.8457 4.94792 81.3405 5.2832 81.7637 5.71289C82.1868 6.13607 82.5189 6.63411 82.7598 7.20703C83.0072 7.77344 83.1309 8.37891 83.1309 9.02344V15H80.4648V9.02344C80.4648 8.75 80.4128 8.49284 80.3086 8.25195C80.2044 8.00456 80.0612 7.78971 79.8789 7.60742C79.6966 7.42513 79.485 7.2819 79.2441 7.17773C79.0033 7.07357 78.7461 7.02148 78.4727 7.02148C78.1927 7.02148 77.929 7.07357 77.6816 7.17773C77.4342 7.2819 77.2194 7.42513 77.0371 7.60742C76.8548 7.78971 76.7116 8.00456 76.6074 8.25195C76.5033 8.49284 76.4512 8.75 76.4512 9.02344V15Z" fill="black"/>
</svg>